<?xml version="1.0" encoding="UTF-8" standalone="no"?>
<!-- Created with Inkscape (http://www.inkscape.org/) -->

<svg
   width="104.93959mm"
   height="113.713mm"
   viewBox="0 0 104.93959 113.713"
   version="1.1"
   id="svg1"
   xml:space="preserve"
   xmlns:inkscape="http://www.inkscape.org/namespaces/inkscape"
   xmlns:sodipodi="http://sodipodi.sourceforge.net/DTD/sodipodi-0.dtd"
   xmlns="http://www.w3.org/2000/svg"
   xmlns:svg="http://www.w3.org/2000/svg"><sodipodi:namedview
     id="namedview1"
     pagecolor="#ffffff"
     bordercolor="#000000"
     borderopacity="0.25"
     inkscape:showpageshadow="2"
     inkscape:pageopacity="0.0"
     inkscape:pagecheckerboard="0"
     inkscape:deskcolor="#d1d1d1"
     inkscape:document-units="mm"><inkscape:page
       x="0"
       y="1.1300569e-22"
       width="104.93959"
       height="113.713"
       id="page2"
       margin="0"
       bleed="0" /></sodipodi:namedview><defs
     id="defs1" /><g
     inkscape:label="Layer 1"
     inkscape:groupmode="layer"
     id="layer1"
     transform="translate(-258.19082,-65.381422)"><path
       style="fill:#ffffff;fill-opacity:1"
       d="m 305.16172,176.62432 c -13.37615,-6.53044 -20.57641,-11.26811 -26.46987,-17.41678 -6.9447,-7.24544 -10.64412,-15.28296 -11.50573,-24.99788 -0.41501,-4.67929 0.0927,-10.868 1.1908,-14.5169 0.66141,-2.19767 0.23957,-1.58887 -0.87588,1.26411 -2.29576,5.87178 -3.05403,9.77146 -3.05036,15.68759 0.002,3.6174 0.1112,4.96715 0.55657,6.89488 1.20367,5.20996 3.54417,9.56652 7.2479,13.49114 1.07268,1.13664 1.77173,1.9614 1.55345,1.8328 -1.88327,-1.10956 -8.7657,-5.7247 -11.6709,-7.82614 -4.2983,-3.10912 -3.93952,-2.06535 -3.93952,-11.46095 0,-11.48904 1.31013,-18.02624 5.22325,-26.06263 2.39879,-4.9264 4.70795,-8.13817 8.7801,-12.21212 6.58165,-6.584562 13.81998,-10.570232 23.56747,-12.977062 l 1.98438,-0.48997 -2.3303,0.14453 c -12.58921,0.78086 -24.7228,7.2094 -31.21882,16.540182 -2.41013,3.46186 -3.8797,6.75324 -5.24735,11.75242 l -0.50668,1.85209 0.14188,-3.70417 c 0.078,-2.03729 0.25777,-6.74026 0.39943,-10.45104 0.14166,-3.71078 0.33027,-7.818442 0.41914,-9.128132 l 0.16158,-2.38125 2.92237,-1.71979 c 14.07575,-8.28348 21.76587,-11.48354 30.82524,-12.8272 4.00685,-0.59428 10.88866,-0.53332 14.77377,0.13087 5.2714,0.90119 11.03969,3.09546 15.68171,5.96534 l 1.4947,0.92407 -2.07858,-1.97802 c -3.2806,-3.12192 -7.75707,-5.895 -11.67976,-7.23537 -4.09364,-1.39879 -4.81059,-1.50731 -9.92187,-1.50185 -4.4627,0.005 -5.13389,0.0683 -7.60323,0.7195 -1.48965,0.39284 -3.44445,1.01332 -4.34402,1.37885 -0.89956,0.36553 -1.67875,0.62141 -1.73154,0.56862 -0.0957,-0.0957 8.52513,-4.92743 13.5465,-7.592433 1.4552,-0.772326 3.68803,-1.968072 4.96182,-2.657215 l 2.31599,-1.252987 2.31422,0.921907 c 3.32038,1.322729 9.83411,4.552488 12.76526,6.329508 11.33821,6.87384 18.3391,16.22102 20.22514,27.003413 0.85742,4.901879 0.41516,11.473139 -1.06993,15.897129 -0.67018,1.99645 -2.4338,5.77996 -2.6075,5.59392 -0.0479,-0.0513 0.10025,-0.9267 0.3292,-1.94534 0.61613,-2.74126 0.60409,-10.3975 -0.021,-13.36146 -0.97977,-4.64559 -2.40571,-8.069069 -4.93162,-11.840112 -0.90162,-1.34607 -1.67813,-2.44739 -1.72557,-2.44739 -0.0474,0 0.31739,0.93363 0.81075,2.07474 1.40068,3.239783 2.48861,8.166732 2.48186,11.239722 -0.002,1.0705 -0.0474,1.01225 -1.43018,-1.84889 -2.53131,-5.237639 -5.63716,-9.240822 -9.72006,-12.528322 -6.17894,-4.97521 -13.17716,-7.5325 -22.05254,-8.05845 -2.59676,-0.15389 -2.38135,0.0293 0.91247,0.77597 6.87191,1.55778 13.76512,5.20835 19.00746,10.06612 1.06054,0.98275 1.87626,1.83882 1.81271,1.90237 -0.0635,0.0635 -0.81221,-0.23169 -1.66368,-0.6561 -5.97597,-2.97868 -14.29267,-4.58013 -20.90902,-4.02621 -5.35756,0.44854 -11.27278,2.13969 -15.49928,4.43122 -1.34563,0.72958 -1.52922,1.05275 -0.34152,0.60119 3.24508,-1.23379 8.82342,-2.12609 13.17339,-2.1072 l 3.24289,0.0141 -2.13974,0.633 c -14.68509,4.344313 -24.67248,14.310672 -28.15806,28.098802 -1.00917,3.99202 -0.98324,4.43909 0.10436,1.79941 1.98831,-4.82575 4.50207,-8.83899 7.69938,-12.29209 1.79752,-1.94132 4.94941,-4.81159 5.10874,-4.65227 0.0436,0.0436 -0.29311,0.71061 -0.74813,1.48235 -4.96809,8.42589 -6.99356,17.15875 -6.10225,26.30993 0.75618,7.76368 3.47638,14.36427 8.27293,20.07429 2.58864,3.08164 5.952,5.89935 9.34818,7.83159 1.04356,0.59373 1.03987,0.58628 -0.26458,-0.53356 -6.33851,-5.4415 -10.76263,-12.55636 -12.57841,-20.22857 -1.01292,-4.27987 -1.5781,-11.0629 -1.06923,-12.8323 0.17459,-0.60704 0.20685,-0.57439 0.3921,0.39688 0.60645,3.17953 3.76535,9.8579 6.29735,13.31353 3.78764,5.16929 9.24924,9.27693 15.29257,11.50148 4.05643,1.49317 4.75734,1.4875 1.98437,-0.0161 -3.18617,-1.7276 -5.6794,-3.51024 -8.03945,-5.74814 -1.85782,-1.76166 -5.43007,-5.88272 -4.90711,-5.66099 0.13561,0.0575 1.26549,0.7816 2.51085,1.60914 6.10988,4.05996 12.6867,6.5444 19.43154,7.3404 6.01073,0.70936 12.93495,-0.12436 18.85791,-2.2706 2.16994,-0.78631 2.35216,-1.04821 0.42564,-0.61179 -3.6397,0.8245 -10.74289,0.80218 -15.3148,-0.0481 l -1.85208,-0.34446 3.30729,-0.18272 c 11.55495,-0.6384 22.20855,-5.2421 29.90916,-12.92451 6.80784,-6.79176 10.06737,-13.79282 11.45798,-24.61028 0.0655,-0.50932 0.0848,2.34818 0.043,6.35 -0.0705,6.7465 -0.12549,7.48388 -0.75576,10.13169 -1.10802,4.65479 -3.40038,9.42766 -6.24445,13.0014 -1.54713,1.94407 -5.49771,5.78002 -7.22358,7.01398 -0.69098,0.49404 -1.20298,0.95161 -1.13776,1.01683 0.14268,0.14268 3.88674,-1.987 6.09826,-3.46878 2.32744,-1.55945 6.71407,-6.08885 7.73201,-7.98366 l 0.85284,-1.5875 0.007,6.53026 0.007,6.53026 -2.05052,1.50366 c -9.92668,7.27927 -19.12603,11.6903 -27.8474,13.35264 -8.52569,1.62505 -15.87498,1.20547 -23.8125,-1.35949 -2.84673,-0.9199 -7.31838,-2.96091 -9.03564,-4.12418 -2.66475,-1.80508 -2.4377,-1.43088 0.76741,1.26471 9.85124,8.28523 19.19315,10.7951 29.86579,8.02398 2.71611,-0.70523 6.36966,-2.02958 8.26101,-2.99448 0.60372,-0.30799 1.09768,-0.50696 1.09768,-0.44215 0,0.47011 -28.30677,15.52199 -29.12621,15.4876 -0.20616,-0.009 -2.63702,-1.12016 -5.40191,-2.47003 z m 14.46374,-31.51994 c 9.04169,-2.48206 17.62793,-7.49408 22.87835,-13.35471 1.9928,-2.22441 3.31935,-3.93164 4.5229,-5.82084 1.28045,-2.00989 3.91694,-7.35521 3.72334,-7.54881 -0.0731,-0.0731 -0.6483,0.66402 -1.27822,1.63804 -2.41417,3.73299 -6.30569,7.91088 -10.0962,10.83916 -1.51254,1.16849 -5.61863,3.80286 -5.92736,3.80286 -0.091,0 0.5012,-0.72004 1.31597,-1.60009 5.61013,-6.05961 9.62672,-13.35799 11.37747,-20.67354 2.42026,-10.11312 1.61889,-18.587502 -2.40983,-25.483662 -2.07778,-3.55664 -5.41274,-7.02003 -9.05723,-9.40602 -1.09795,-0.71881 -1.90449,-1.30753 -1.79232,-1.30827 0.24243,-0.002 5.7556,2.85663 9.85022,5.1067 3.91894,2.15354 9.66286,5.51453 14.92144,8.73112 l 4.3381,2.65355 -0.16535,5.842713 c -0.17463,6.170889 -0.39859,8.428779 -1.26188,12.721879 -1.84619,9.181 -6.88299,18.02513 -13.67996,24.02066 -7.37301,6.50364 -17.68807,10.55031 -26.73438,10.48808 l -2.81797,-0.0194 z"
       id="path2"
       sodipodi:nodetypes="csscscsssssssscsssccsscsssscsscssssscsssssssssccssssssssssscssssscssssssssscsscsssscsssssssssscccsssscssscccssssssssssscsscsssscs"
       inkscape:export-filename="build_logo.png"
       inkscape:export-xdpi="96"
       inkscape:export-ydpi="96" /></g></svg>
